<svg xmlns="http://www.w3.org/2000/svg" width="500" height="540" viewBox="0 0 500 540" version="1.1"><path d="" stroke="none" fill="#fff49c" fill-rule="evenodd"/><path d="M 254.286 13.441 C 244.013 16.676, 234.869 24.781, 230.160 34.825 L 227.500 40.500 227.237 151.294 L 226.974 262.088 234.237 261.794 L 241.500 261.500 241.735 155.500 C 241.906 78.559, 242.285 48.739, 243.117 46.724 C 243.748 45.197, 245.500 43.068, 247.011 41.992 C 249.692 40.083, 252.216 40.034, 352.145 39.933 C 432.404 39.852, 455.128 40.101, 457.291 41.087 C 458.808 41.778, 460.938 43.782, 462.025 45.540 C 463.960 48.671, 464 50.932, 464 157.368 C 464 222.974, 464.365 266, 464.922 266 C 465.429 266, 468.804 267.985, 472.422 270.411 L 479 274.822 479 230.411 C 479 204.100, 479.374 186, 479.918 186 C 480.424 186, 481.774 184.484, 482.918 182.632 C 484.955 179.337, 485 178.175, 485 129 C 485 79.825, 484.955 78.663, 482.918 75.368 C 481.774 73.516, 480.464 72, 480.008 72 C 479.552 72, 479.027 65.138, 478.840 56.750 C 478.511 42.009, 478.394 41.275, 475.307 34.759 C 471.370 26.449, 464.438 19.333, 456.478 15.431 L 450.500 12.500 354.500 12.307 C 277.092 12.151, 257.684 12.371, 254.286 13.441 M 342.210 21.773 C 326.425 22.008, 323.835 22.268, 323.297 23.667 C 321.820 27.517, 325.131 28, 353 28 C 380.912 28, 384.181 27.521, 382.694 23.645 C 382.187 22.323, 380.533 21.985, 374.281 21.923 C 370.002 21.881, 365.150 21.768, 363.500 21.673 C 361.850 21.578, 352.269 21.623, 342.210 21.773 M 149.928 62.530 C 99.622 70.373, 63.738 97.892, 48.091 140.628 L 45.848 146.755 42.174 145.901 C 36.824 144.658, 32.007 144.815, 31.467 146.250 C 31.209 146.938, 35.214 158.525, 40.368 172 C 47.279 190.065, 50.166 196.500, 51.360 196.500 C 52.840 196.500, 86 156.777, 86 155.005 C 86 153.307, 83.173 152.186, 77.178 151.505 C 73.458 151.082, 70.648 150.248, 70.353 149.477 C 69.703 147.784, 72.607 137.350, 76.110 128.785 C 84.466 108.361, 103.105 89.608, 126.448 78.139 C 136.240 73.328, 150.942 67.931, 158 66.557 C 162.693 65.643, 167 63.934, 167 62.986 C 167 60.726, 162.304 60.601, 149.928 62.530 M 77.595 267.500 C 74.294 269.741, 72.904 270.001, 64.206 270.006 C 58.868 270.009, 51.881 270.441, 48.679 270.965 C 35.417 273.137, 24.549 281.398, 18.693 293.759 L 15.500 300.500 15.500 397 L 15.500 493.500 18.709 500.275 C 22.593 508.475, 29.713 515.733, 37.735 519.670 L 43.500 522.500 250 522.500 L 456.500 522.500 462.265 519.670 C 470.287 515.733, 477.407 508.475, 481.291 500.275 L 484.500 493.500 484.500 397 L 484.500 300.500 481.307 293.759 C 475.451 281.398, 464.583 273.137, 451.321 270.965 C 447.847 270.396, 393.938 270.009, 317.644 270.006 L 189.789 270 186.818 267.500 L 183.847 265 132.563 265 L 81.279 265 77.595 267.500 M 48.873 287.684 C 42.636 291.554, 43 284.754, 43 397.419 L 43 500.029 46.423 503.765 L 49.846 507.500 238.500 507.500 L 427.154 507.500 430.577 503.765 L 434 500.029 434 397.419 C 434 284.430, 434.385 291.431, 427.960 287.636 C 425.423 286.137, 409.547 286.002, 238.346 286.027 C 67.384 286.051, 51.277 286.192, 48.873 287.684 M 340.952 314.351 C 332.522 320.336, 331.016 322.214, 332.612 324.750 C 334.458 327.681, 336.963 327.358, 342.620 323.462 L 348.029 319.736 353.499 323.368 C 359.375 327.269, 360.925 327.675, 362.800 325.800 C 365.604 322.996, 364.072 320.484, 356.102 314.817 L 348.205 309.202 340.952 314.351 M 340.011 329.302 C 332.435 334.585, 330.852 336.911, 333.040 339.548 C 334.962 341.864, 337.901 341.258, 343.197 337.454 L 348.133 333.908 353.150 337.512 C 359.471 342.054, 363.377 342.049, 363.739 337.500 C 363.953 334.805, 363.214 333.967, 356.461 329.250 C 352.327 326.363, 348.619 324.018, 348.222 324.041 C 347.825 324.063, 344.130 326.431, 340.011 329.302 M 344 343.983 C 332.687 346.073, 324.008 357.502, 325.264 368.653 C 325.879 374.102, 330.498 381.819, 334.751 384.500 L 337.923 386.500 337.972 397 C 338 402.775, 338.310 409.300, 338.663 411.500 L 339.303 415.500 333.712 410.250 C 328.817 405.654, 327.601 405, 323.960 405 C 320.562 405, 319.177 405.623, 316.400 408.400 C 311.095 413.705, 311.609 415.875, 321.679 430.712 C 326.452 437.745, 332.015 445.759, 334.040 448.520 C 339.320 455.717, 343.609 463.724, 345.303 469.546 C 346.557 473.857, 346.569 474.869, 345.386 476.487 C 343.079 479.642, 343.698 483.852, 346.946 487.100 L 349.893 490.047 366.696 489.506 C 399 488.465, 402.210 488.151, 404.724 485.790 C 407.372 483.302, 407.799 477.908, 405.500 476 C 403.019 473.941, 403.803 462.771, 408.451 434 C 409.295 428.775, 409.989 418.493, 409.993 411.150 L 410 397.800 406.600 394.400 C 403.119 390.919, 398.310 389.885, 395.089 391.924 C 394.066 392.571, 393.092 391.948, 391.551 389.659 C 388.512 385.143, 384.524 383.447, 379.868 384.690 C 376.395 385.617, 375.998 385.488, 374.002 382.789 C 372.825 381.197, 370.825 379.422, 369.559 378.845 C 367.333 377.830, 367.309 377.690, 368.847 374.648 C 371.091 370.210, 370.802 361.450, 368.247 356.500 C 363.433 347.170, 353.764 342.179, 344 343.983 M 340.502 350.575 C 333.649 354.149, 330.993 358.524, 331.016 366.200 C 331.028 369.824, 331.739 372.741, 333.266 375.422 C 337.065 382.092, 338 381.262, 338 371.218 C 338 363.761, 338.336 361.843, 340.016 359.707 C 343.021 355.886, 347.977 354.546, 352.348 356.372 C 357.307 358.444, 359 362.312, 359 371.573 C 359 378.598, 359.140 379.129, 360.655 377.872 C 365.284 374.033, 366.315 363.909, 362.729 357.500 C 358.694 350.286, 347.654 346.846, 340.502 350.575 M 343.959 362.041 C 342.009 363.991, 341.942 364.901, 342.474 382.291 C 342.780 392.306, 343.265 405.526, 343.551 411.669 C 343.905 419.269, 343.719 423.056, 342.967 423.521 C 342.344 423.905, 338.662 421.101, 334.537 417.102 C 328.236 410.992, 326.714 410, 323.642 410 C 319.904 410, 318 411.949, 318 415.775 C 318 416.824, 323.828 426.050, 330.951 436.277 C 344.571 455.833, 348.065 461.814, 349.942 468.784 L 351.087 473.035 375.293 472.768 L 399.500 472.500 400.142 461 C 400.495 454.675, 401.533 446.125, 402.448 442 C 404.375 433.318, 406.283 407.140, 405.365 402 C 404.507 397.200, 403.314 396, 399.401 396 C 394.140 396, 392.559 399.260, 393.341 408.503 C 394.050 416.894, 393.574 419, 390.970 419 C 389.322 419, 389.125 417.753, 388.827 405.417 C 388.536 393.344, 388.284 391.677, 386.559 390.417 C 383.451 388.148, 379.280 388.644, 377.405 391.504 C 376.054 393.566, 375.887 395.479, 376.457 402.320 C 377.026 409.157, 376.877 410.857, 375.618 411.902 C 372.668 414.350, 372 412.091, 372 399.663 C 372 385.521, 371.038 383, 365.643 383 C 360.627 383, 360 384.333, 360 395 C 360 404.957, 358.956 408.038, 356.324 405.854 C 355.308 405.011, 355 400.225, 355 385.312 C 355 366.361, 354.492 362.696, 351.600 360.765 C 349.553 359.398, 346.010 359.990, 343.959 362.041 M 26.250 367.662 C 25.291 368.049, 25 374.864, 25 396.976 C 25 422.660, 25.177 425.854, 26.627 426.410 C 30.715 427.979, 31 426.068, 31 397.078 C 31 367.363, 30.755 365.845, 26.250 367.662 M 449.990 381.250 C 444.312 385.115, 442.500 388.440, 442.500 395 C 442.500 399.373, 443.029 401.568, 444.592 403.677 C 451.950 413.607, 465.050 413.607, 472.408 403.677 C 473.971 401.568, 474.500 399.373, 474.500 395 C 474.500 388.440, 472.688 385.115, 467.010 381.250 C 464.628 379.628, 462.251 379, 458.500 379 C 454.749 379, 452.372 379.628, 449.990 381.250 M 354.009 477.904 C 348.187 478.536, 346.493 480.480, 349.064 483.577 C 350.113 484.841, 353.826 484.972, 374.397 484.467 C 403.452 483.754, 403.225 483.788, 402.813 480.215 L 402.500 477.500 381 477.404 C 369.175 477.351, 357.029 477.576, 354.009 477.904" stroke="none" fill="#fcf49c" fill-rule="evenodd"/></svg>