<svg>
  <symbol id="Telegram" xmlns="http://www.w3.org/2000/svg" viewBox="0 0 25 24.99">
    <title>Telegram</title>
    <path d="M6.26.67A7,7,0,0,0,5.19.75,5.62,5.62,0,0,0,2.06,2.39,5.74,5.74,0,0,0,.51,6c0,.56,0,13.81,0,14.38a5.59,5.59,0,0,0,5.21,5.24c.53.05,13.9.05,14.46,0a6.14,6.14,0,0,0,3-1.07,6,6,0,0,0,1.19-1.18,6,6,0,0,0,1.06-3.14c.05-.69.05-13.44,0-14.09a5.55,5.55,0,0,0-3-4.82A6,6,0,0,0,19.69.66C18.79.62,7.41.63,6.26.67ZM19.26,2a11.8,11.8,0,0,1,1.44.09,4.27,4.27,0,0,1,2.47,1.53,4.37,4.37,0,0,1,.9,2.51c0,.34,0,2.87,0,7.37,0,6.43,0,6.87-.08,7.19a4.13,4.13,0,0,1-3.48,3.47c-.35.06-.67.06-7.59.06s-7.25,0-7.57-.06a4.18,4.18,0,0,1-3.46-3.45c-.06-.3-.07-.77-.08-7.3,0-4.63,0-7.12,0-7.39a4.23,4.23,0,0,1,3.4-3.93A7.42,7.42,0,0,1,6.59,2C8.18,2,18,2,19.26,2Z" transform="translate(-0.47 -0.63)"></path>
    <path d="M18.09,7.3a4.43,4.43,0,0,0-.49.16c-1,.35-3.18,1.2-5.58,2.13l-4.3,1.66c-2.17.83-3.65,1.41-3.83,1.52a1.1,1.1,0,0,0-.43.47c0,.21.06.34.37.5a27.35,27.35,0,0,0,3.66,1.15c.14,0,.17,0,.39-.14L9.13,14l5.42-3.38c1.28-.81,1.71-1.05,1.85-1l.07,0-.07.1L13,12.79l-3.4,3.06a25.14,25.14,0,0,0,2.82,2.2c1.58,1.18,3,2.19,3.08,2.25a.74.74,0,0,0,1-.14c.2-.28.19-.21,1.44-6.08,1-4.55,1.18-5.64,1.18-6s0-.53-.2-.65A.92.92,0,0,0,18.09,7.3Z" transform="translate(-0.47 -0.63)"></path>
  </symbol>
  <symbol id="Viber" xmlns="http://www.w3.org/2000/svg" viewBox="0 0 25 24.95">
    <title>Viber</title>
    <path d="M5.44.68a6.07,6.07,0,0,0-1.89.57A5.62,5.62,0,0,0,.49,5.88c0,.55,0,13.88,0,14.45A5.67,5.67,0,0,0,2.13,24a5.54,5.54,0,0,0,3.53,1.62c.28,0,2.58,0,7.6,0,7.79,0,7.23,0,8-.2a5.5,5.5,0,0,0,2.56-1.49,5.71,5.71,0,0,0,1.58-3.67c0-.61,0-13.09,0-14a5.68,5.68,0,0,0-.31-1.78A5.54,5.54,0,0,0,20.91.74L20.56.66H13.11C9,.65,5.57.66,5.44.68ZM20.72,2.1a4.41,4.41,0,0,1,2.1,1.13A4.37,4.37,0,0,1,24,5.59c.06.36.06.73.06,7.51s0,7.16-.06,7.52A4.17,4.17,0,0,1,21.24,24c-.81.28-.53.26-8.52.25H5.6l-.35-.08A4.26,4.26,0,0,1,3,22.91,4.43,4.43,0,0,1,1.9,20.65c-.06-.32-.07-.73-.07-7.53s0-7.2.07-7.55A4.19,4.19,0,0,1,5.47,2.06C5.72,2,7.09,2,13.1,2h7.31Z" transform="translate(-0.45 -0.65)"></path>
    <path d="M11.89,5.15a16.46,16.46,0,0,0-3.61.62A5,5,0,0,0,5.71,7.69a9.06,9.06,0,0,0-1.12,4.59,16.22,16.22,0,0,0,.53,4.47A4.16,4.16,0,0,0,6.71,19a3.7,3.7,0,0,0,1,.49c.52.18.67.27.78.51a4.45,4.45,0,0,1,.27,1.39c.11,1.06.16,1.25.34,1.25s.4-.21,1.15-1c.41-.42.82-.82.9-.88.35-.23.7-.3,2.76-.44a20.64,20.64,0,0,0,3.65-.47,4.94,4.94,0,0,0,3.21-3.15,11.41,11.41,0,0,0,.44-2.95l.07-.94-.07-.93a10,10,0,0,0-.5-3.06A4.81,4.81,0,0,0,19.57,7a5,5,0,0,0-1.8-1.18,15.47,15.47,0,0,0-3.65-.65C13.64,5.13,12.38,5.12,11.89,5.15Zm2.8,1.24a13.72,13.72,0,0,1,2.55.5,3.81,3.81,0,0,1,2.57,2.88,13.47,13.47,0,0,1,.29,3.32,8.51,8.51,0,0,1-.65,3.7,3.47,3.47,0,0,1-.78,1.05,3.16,3.16,0,0,1-.92.64c-.66.33-1.27.44-3.54.65-1.86.17-1.93.18-2.45.44-.19.1-.3.21-.91.89-.76.85-1.58,1.74-1.59,1.73s-.06-.44-.11-1a10,10,0,0,0-.23-1.9c-.16-.52-.43-.79-1.13-1.13A2.77,2.77,0,0,1,7,17.71,3.41,3.41,0,0,1,6,15.3a41.72,41.72,0,0,1,0-5.46,3.88,3.88,0,0,1,2.73-3,16.71,16.71,0,0,1,3-.5A26.16,26.16,0,0,1,14.69,6.39Z" transform="translate(-0.45 -0.65)"></path>
    <path d="M13.22,8.85a2.45,2.45,0,0,0-.77.31l-.11.08h.52c2.13,0,3.34.88,3.7,2.65a6.47,6.47,0,0,1,.09.91,3.18,3.18,0,0,0,.05.56c.05,0,.2-.23.28-.44a1.26,1.26,0,0,0,.1-.67,2.65,2.65,0,0,0-.33-1.35,3.59,3.59,0,0,0-3-2.07A4,4,0,0,0,13.22,8.85Z" transform="translate(-0.45 -0.65)"></path>
    <path d="M9.62,9.08a1.43,1.43,0,0,0-1,1,1.4,1.4,0,0,0-.06.56,1.82,1.82,0,0,0,.22.79,10,10,0,0,0,2.7,3.83,9.16,9.16,0,0,0,3.37,1.85A2.47,2.47,0,0,0,15.9,17a1.55,1.55,0,0,0,.88-1.14.68.68,0,0,0-.35-.58l-.57-.42c-.6-.44-.88-.56-1.16-.48a1,1,0,0,0-.51.39c-.3.38-.6.42-1.12.15a4.65,4.65,0,0,1-1.9-1.74,1.73,1.73,0,0,1-.32-.86c0-.28.08-.41.38-.69a1.28,1.28,0,0,0,.3-.34.9.9,0,0,0-.25-.9c-.08-.1-.24-.35-.36-.55-.35-.58-.58-.78-.95-.82A1.38,1.38,0,0,0,9.62,9.08Z" transform="translate(-0.45 -0.65)"></path>
    <path d="M13.39,9.83c-.21.05-.6.27-.6.35a2,2,0,0,0,.44.05A2.41,2.41,0,0,1,15,10.9a2.94,2.94,0,0,1,.74,2l0,.39.11-.23a2.06,2.06,0,0,0-.17-2,2.94,2.94,0,0,0-1.61-1.17A1.15,1.15,0,0,0,13.39,9.83Z" transform="translate(-0.45 -0.65)"></path>
    <path d="M13.34,10.89l-.27.13c-.07.05-.07.05.06.07a1.81,1.81,0,0,1,1.63,1.49c.06.3.06.3.12.22a1.06,1.06,0,0,0,.06-1,2.6,2.6,0,0,0-.82-.83A1,1,0,0,0,13.34,10.89Z" transform="translate(-0.45 -0.65)"></path>
  </symbol>
  <symbol id="WhatsApp" xmlns="http://www.w3.org/2000/svg" viewBox="0 0 25 25.02">
    <title>WhatsApp</title>
    <path d="M4.74-.15A5.75,5.75,0,0,0,1.23,1.42,5.64,5.64,0,0,0-.45,5.05c0,.29,0,2.59,0,7.53l0,7.12.07.41A5.87,5.87,0,0,0,.73,22.72a5.57,5.57,0,0,0,3.78,2.05c.39.06.85.07,7.51.07,7.5,0,7.39,0,8.12-.17A5.42,5.42,0,0,0,24.21,21a6.43,6.43,0,0,0,.28-1.27c0-.24,0-2.56,0-7.59,0-6.87,0-7.26-.08-7.58a6.38,6.38,0,0,0-.91-2.28A6.33,6.33,0,0,0,22.12.85a6.16,6.16,0,0,0-3-1C18.62-.2,5.2-.2,4.74-.15Zm15,1.42a4.21,4.21,0,0,1,3.22,2.89c.23.74.22.33.21,8.35s0,7.36-.23,8.07a4.09,4.09,0,0,1-2.75,2.67c-.73.23-.25.21-7.74.23-7.23,0-7.54,0-8.24-.15a4,4,0,0,1-3.06-2.75c-.24-.76-.23-.17-.24-8,0-4.94,0-7.19,0-7.46a4.21,4.21,0,0,1,2-3.31,4.79,4.79,0,0,1,1.8-.6c.15,0,3.45,0,7.46,0h7.19Z" transform="translate(0.48 0.19)"></path>
    <path d="M11.43,4.14,11,4.19A7.83,7.83,0,0,0,5.86,7.36a7.64,7.64,0,0,0-1.67,4.71A9.26,9.26,0,0,0,5,15.78a1.54,1.54,0,0,1,.15.65,2.48,2.48,0,0,1-.13.93c-.08.34-.29,1.1-.45,1.69s-.31,1.1-.31,1.12a7.8,7.8,0,0,0,1.07-.23l1.7-.39a3.56,3.56,0,0,1,1.1-.12,3,3,0,0,1,1.22.28,8.6,8.6,0,0,0,3,.54A7.48,7.48,0,0,0,17,18.66a7.72,7.72,0,0,0,3.23-5.19,9.91,9.91,0,0,0,0-2.11A7.71,7.71,0,0,0,15.79,5a10.59,10.59,0,0,0-2.47-.73A12.82,12.82,0,0,0,11.43,4.14ZM13,5.45a6.82,6.82,0,1,1-2.15,13.47,6.48,6.48,0,0,1-1.37-.44,2.51,2.51,0,0,0-1.73-.29c-.13,0-.61.17-1,.32-.76.25-.92.3-.92.25s.13-.42.29-.92.3-1,.33-1.16a3.79,3.79,0,0,0-.43-2,11.63,11.63,0,0,1-.38-1.19,6.56,6.56,0,0,1,1.75-6A6.81,6.81,0,0,1,13,5.45Z" transform="translate(0.48 0.19)"></path>
    <path d="M8.89,8.69a1.4,1.4,0,0,0-.6.66,2.39,2.39,0,0,0,.34,2.52,11.39,11.39,0,0,0,2.22,2.43,11.59,11.59,0,0,0,2.61,1.58,2.46,2.46,0,0,0,2-.09,1.15,1.15,0,0,0,.72-1,.94.94,0,0,0-.44-.65,10.78,10.78,0,0,0-1.32-.8.66.66,0,0,0-.8.35c-.26.44-.38.51-.76.42a5.1,5.1,0,0,1-1.12-.53,4,4,0,0,1-1.29-1.44.91.91,0,0,1-.12-.44.63.63,0,0,1,.25-.58.71.71,0,0,0,.22-.95A7.7,7.7,0,0,0,9.69,8.89a1.12,1.12,0,0,0-.6-.24Z" transform="translate(0.48 0.19)"></path>
  </symbol>
</svg>